{
	"asset":{
		"generator":"Khronos glTF Blender I/O v4.4.56",
		"version":"2.0"
	},
	"scene":0,
	"scenes":[
		{
			"name":"Scene",
			"nodes":[
				12
			]
		}
	],
	"nodes":[
		{
			"mesh":0,
			"name":"Object_4"
		},
		{
			"children":[
				0
			],
			"name":"Cube.011_2",
			"translation":[
				-0.8941178917884827,
				0.7492376565933228,
				2
			]
		},
		{
			"mesh":1,
			"name":"Object_6"
		},
		{
			"children":[
				2
			],
			"name":"Cube.012_3",
			"translation":[
				0,
				1.2808902263641357,
				2
			]
		},
		{
			"mesh":2,
			"name":"Object_8"
		},
		{
			"children":[
				4
			],
			"name":"Cube.015_4",
			"translation":[
				0.1626022756099701,
				0.45931175351142883,
				2
			]
		},
		{
			"mesh":3,
			"name":"Object_10"
		},
		{
			"children":[
				6
			],
			"name":"Cube.018_5",
			"translation":[
				-0.8941178321838379,
				0.7492376565933228,
				2
			]
		},
		{
			"mesh":4,
			"name":"Object_12"
		},
		{
			"children":[
				8
			],
			"name":"Cylinder.009_6",
			"rotation":[
				0.6933366656303406,
				-0.1388675421476364,
				-0.1388675719499588,
				0.6933367848396301
			],
			"translation":[
				1.8626048564910889,
				1.0952101945877075,
				2
			]
		},
		{
			"children":[
				1,
				3,
				5,
				7,
				9
			],
			"name":"GLTF_SceneRootNode",
			"rotation":[
				0.70710688829422,
				0,
				0,
				0.7071066498756409
			]
		},
		{
			"children":[
				10
			],
			"name":"root"
		},
		{
			"children":[
				11
			],
			"name":"Sketchfab_model",
			"rotation":[
				-0.70710688829422,
				0,
				0,
				0.7071066498756409
			],
			"translation":[
				0,
				0,
				-2
			]
		}
	],
	"materials":[
		{
			"doubleSided":true,
			"name":"Material.001",
			"normalTexture":{
				"index":0
			},
			"pbrMetallicRoughness":{
				"baseColorTexture":{
					"index":1
				},
				"metallicFactor":0.6948497891426086,
				"roughnessFactor":0.45164287090301514
			}
		}
	],
	"meshes":[
		{
			"name":"Object_0",
			"primitives":[
				{
					"attributes":{
						"POSITION":0,
						"NORMAL":1,
						"TEXCOORD_0":2
					},
					"indices":3,
					"material":0
				}
			]
		},
		{
			"name":"Object_1",
			"primitives":[
				{
					"attributes":{
						"POSITION":4,
						"NORMAL":5,
						"TEXCOORD_0":6
					},
					"indices":7,
					"material":0
				}
			]
		},
		{
			"name":"Object_2",
			"primitives":[
				{
					"attributes":{
						"POSITION":8,
						"NORMAL":9,
						"TEXCOORD_0":10
					},
					"indices":11,
					"material":0
				}
			]
		},
		{
			"name":"Object_3",
			"primitives":[
				{
					"attributes":{
						"POSITION":12,
						"NORMAL":13,
						"TEXCOORD_0":14
					},
					"indices":15,
					"material":0
				}
			]
		},
		{
			"name":"Object_4",
			"primitives":[
				{
					"attributes":{
						"POSITION":16,
						"NORMAL":17,
						"TEXCOORD_0":18
					},
					"indices":19,
					"material":0
				}
			]
		}
	],
	"textures":[
		{
			"sampler":0,
			"source":0
		},
		{
			"sampler":0,
			"source":1
		}
	],
	"images":[
		{
			"mimeType":"image/png",
			"name":"Material_normal",
			"uri":"Material_normal.png"
		},
		{
			"mimeType":"image/png",
			"name":"Material_baseColor",
			"uri":"Material_baseColor.png"
		}
	],
	"accessors":[
		{
			"bufferView":0,
			"componentType":5126,
			"count":1714,
			"max":[
				3.2125747203826904,
				0.8821988105773926,
				0.4360175132751465
			],
			"min":[
				-2.205217123031616,
				-2.2418227195739746,
				-0.3392910957336426
			],
			"type":"VEC3"
		},
		{
			"bufferView":1,
			"componentType":5126,
			"count":1714,
			"type":"VEC3"
		},
		{
			"bufferView":2,
			"componentType":5126,
			"count":1714,
			"type":"VEC2"
		},
		{
			"bufferView":3,
			"componentType":5123,
			"count":6420,
			"type":"SCALAR"
		},
		{
			"bufferView":4,
			"componentType":5126,
			"count":741,
			"max":[
				2.1238343715667725,
				0.567202091217041,
				0.3114699125289917
			],
			"min":[
				-2.2322096824645996,
				-0.25371962785720825,
				-0.31147003173828125
			],
			"type":"VEC3"
		},
		{
			"bufferView":5,
			"componentType":5126,
			"count":741,
			"type":"VEC3"
		},
		{
			"bufferView":6,
			"componentType":5126,
			"count":741,
			"type":"VEC2"
		},
		{
			"bufferView":7,
			"componentType":5123,
			"count":2664,
			"type":"SCALAR"
		},
		{
			"bufferView":8,
			"componentType":5126,
			"count":143,
			"max":[
				0.09516561031341553,
				0.3596397042274475,
				0.09057265520095825
			],
			"min":[
				-0.2706226706504822,
				-0.27865758538246155,
				-0.09057265520095825
			],
			"type":"VEC3"
		},
		{
			"bufferView":9,
			"componentType":5126,
			"count":143,
			"type":"VEC3"
		},
		{
			"bufferView":10,
			"componentType":5126,
			"count":143,
			"type":"VEC2"
		},
		{
			"bufferView":11,
			"componentType":5123,
			"count":534,
			"type":"SCALAR"
		},
		{
			"bufferView":12,
			"componentType":5126,
			"count":418,
			"max":[
				2.952742576599121,
				0.44402965903282166,
				0.33494842052459717
			],
			"min":[
				1.3483240604400635,
				-2.230668783187866,
				-0.33494842052459717
			],
			"type":"VEC3"
		},
		{
			"bufferView":13,
			"componentType":5126,
			"count":418,
			"type":"VEC3"
		},
		{
			"bufferView":14,
			"componentType":5126,
			"count":418,
			"type":"VEC2"
		},
		{
			"bufferView":15,
			"componentType":5123,
			"count":1818,
			"type":"SCALAR"
		},
		{
			"bufferView":16,
			"componentType":5126,
			"count":104,
			"max":[
				0.30550312995910645,
				0.09730849415063858,
				0.2140159010887146
			],
			"min":[
				-0.20751138031482697,
				-0.09730848670005798,
				-0.43987998366355896
			],
			"type":"VEC3"
		},
		{
			"bufferView":17,
			"componentType":5126,
			"count":104,
			"type":"VEC3"
		},
		{
			"bufferView":18,
			"componentType":5126,
			"count":104,
			"type":"VEC2"
		},
		{
			"bufferView":19,
			"componentType":5123,
			"count":294,
			"type":"SCALAR"
		}
	],
	"bufferViews":[
		{
			"buffer":0,
			"byteLength":20568,
			"byteOffset":0,
			"target":34962
		},
		{
			"buffer":0,
			"byteLength":20568,
			"byteOffset":20568,
			"target":34962
		},
		{
			"buffer":0,
			"byteLength":13712,
			"byteOffset":41136,
			"target":34962
		},
		{
			"buffer":0,
			"byteLength":12840,
			"byteOffset":54848,
			"target":34963
		},
		{
			"buffer":0,
			"byteLength":8892,
			"byteOffset":67688,
			"target":34962
		},
		{
			"buffer":0,
			"byteLength":8892,
			"byteOffset":76580,
			"target":34962
		},
		{
			"buffer":0,
			"byteLength":5928,
			"byteOffset":85472,
			"target":34962
		},
		{
			"buffer":0,
			"byteLength":5328,
			"byteOffset":91400,
			"target":34963
		},
		{
			"buffer":0,
			"byteLength":1716,
			"byteOffset":96728,
			"target":34962
		},
		{
			"buffer":0,
			"byteLength":1716,
			"byteOffset":98444,
			"target":34962
		},
		{
			"buffer":0,
			"byteLength":1144,
			"byteOffset":100160,
			"target":34962
		},
		{
			"buffer":0,
			"byteLength":1068,
			"byteOffset":101304,
			"target":34963
		},
		{
			"buffer":0,
			"byteLength":5016,
			"byteOffset":102372,
			"target":34962
		},
		{
			"buffer":0,
			"byteLength":5016,
			"byteOffset":107388,
			"target":34962
		},
		{
			"buffer":0,
			"byteLength":3344,
			"byteOffset":112404,
			"target":34962
		},
		{
			"buffer":0,
			"byteLength":3636,
			"byteOffset":115748,
			"target":34963
		},
		{
			"buffer":0,
			"byteLength":1248,
			"byteOffset":119384,
			"target":34962
		},
		{
			"buffer":0,
			"byteLength":1248,
			"byteOffset":120632,
			"target":34962
		},
		{
			"buffer":0,
			"byteLength":832,
			"byteOffset":121880,
			"target":34962
		},
		{
			"buffer":0,
			"byteLength":588,
			"byteOffset":122712,
			"target":34963
		}
	],
	"samplers":[
		{
			"magFilter":9729,
			"minFilter":9987
		}
	],
	"buffers":[
		{
			"byteLength":123300,
			"uri":"scene.bin"
		}
	]
}
