{
  "accessors": [
    {
      "bufferView": 2,
      "componentType": 5126,
      "count": 362,
      "max": [
        0.12548579275608063,
        0.39152762293815613,
        0.15671925246715546
      ],
      "min": [
        -0.12548579275608063,
        0.3282012939453125,
        -0.06272213160991669
      ],
      "type": "VEC3"
    },
    {
      "bufferView": 2,
      "byteOffset": 4344,
      "componentType": 5126,
      "count": 362,
      "max": [
        0.8196525573730469,
        0.9098867774009705,
        0.8852181434631348
      ],
      "min": [
        -0.8196525573730469,
        -0.9148213267326355,
        -0.8772047758102417
      ],
      "type": "VEC3"
    },
    {
      "bufferView": 1,
      "componentType": 5126,
      "count": 362,
      "max": [
        0.9818421006202698,
        0.9835319519042969
      ],
      "min": [
        0.4455018639564514,
        0.02206122875213623
      ],
      "type": "VEC2"
    },
    {
      "bufferView": 0,
      "componentType": 5125,
      "count": 1608,
      "type": "SCALAR"
    },
    {
      "bufferView": 2,
      "byteOffset": 8688,
      "componentType": 5126,
      "count": 805,
      "max": [
        5.949526309967041,
        16.465797424316406,
        5.066923141479492
      ],
      "min": [
        -5.552407741546631,
        3.6166305541992188,
        -6.197901248931885
      ],
      "type": "VEC3"
    },
    {
      "bufferView": 2,
      "byteOffset": 18348,
      "componentType": 5126,
      "count": 805,
      "max": [
        0.997950553894043,
        0.9959854483604431,
        0.9966627955436707
      ],
      "min": [
        -0.9996395111083984,
        -0.9999927282333374,
        -0.9971038103103638
      ],
      "type": "VEC3"
    },
    {
      "bufferView": 3,
      "componentType": 5126,
      "count": 805,
      "max": [
        0.9937167167663574,
        0.999980628490448,
        0.9998008012771606,
        1.0
      ],
      "min": [
        -0.9933270215988159,
        -0.9814954400062561,
        -0.9989684224128723,
        1.0
      ],
      "type": "VEC4"
    },
    {
      "bufferView": 1,
      "byteOffset": 2896,
      "componentType": 5126,
      "count": 805,
      "max": [
        0.9750030636787415,
        0.9772559404373169
      ],
      "min": [
        0.024445507675409317,
        0.02934998832643032
      ],
      "type": "VEC2"
    },
    {
      "bufferView": 0,
      "byteOffset": 6432,
      "componentType": 5125,
      "count": 4011,
      "type": "SCALAR"
    },
    {
      "bufferView": 2,
      "byteOffset": 28008,
      "componentType": 5126,
      "count": 16,
      "max": [
        1.6163320541381836,
        0.03125300630927086,
        1.0067696571350098
      ],
      "min": [
        -5.354650497436523,
        -0.1362917274236679,
        -0.9876251220703125
      ],
      "type": "VEC3"
    },
    {
      "bufferView": 2,
      "byteOffset": 28200,
      "componentType": 5126,
      "count": 16,
      "max": [
        0.09967644512653351,
        0.9992544651031494,
        -0.006439444608986378
      ],
      "min": [
        -0.09967644512653351,
        0.9949942827224731,
        -0.007904373109340668
      ],
      "type": "VEC3"
    },
    {
      "bufferView": 1,
      "byteOffset": 9336,
      "componentType": 5126,
      "count": 16,
      "max": [
        0.9895089268684387,
        0.7640141248703003
      ],
      "min": [
        0.02127128839492798,
        0.15231925249099731
      ],
      "type": "VEC2"
    },
    {
      "bufferView": 0,
      "byteOffset": 22476,
      "componentType": 5125,
      "count": 36,
      "type": "SCALAR"
    },
    {
      "bufferView": 2,
      "byteOffset": 28392,
      "componentType": 5126,
      "count": 1800,
      "max": [
        5.206926345825195,
        6.4124956130981445,
        -0.06592273712158203
      ],
      "min": [
        -5.206926345825195,
        -5.05678129196167,
        -18.896984100341797
      ],
      "type": "VEC3"
    },
    {
      "bufferView": 2,
      "byteOffset": 49992,
      "componentType": 5126,
      "count": 1800,
      "max": [
        0.9999661445617676,
        0.9999678134918213,
        0.9999932050704956
      ],
      "min": [
        -0.999935507774353,
        -0.9999277591705322,
        -0.9995772838592529
      ],
      "type": "VEC3"
    },
    {
      "bufferView": 3,
      "byteOffset": 12880,
      "componentType": 5126,
      "count": 1800,
      "max": [
        1.0,
        0.9998050928115845,
        0.9553789496421814,
        1.0
      ],
      "min": [
        -0.9998628497123718,
        -0.9998347163200378,
        -0.9553786516189575,
        -1.0
      ],
      "type": "VEC4"
    },
    {
      "bufferView": 1,
      "byteOffset": 9464,
      "componentType": 5126,
      "count": 1800,
      "max": [
        0.9813125133514404,
        0.9813125133514404
      ],
      "min": [
        0.01868748664855957,
        0.012804575264453888
      ],
      "type": "VEC2"
    },
    {
      "bufferView": 0,
      "byteOffset": 22620,
      "componentType": 5125,
      "count": 10116,
      "type": "SCALAR"
    },
    {
      "bufferView": 2,
      "byteOffset": 71592,
      "componentType": 5126,
      "count": 628,
      "max": [
        2.178314685821533,
        3.4072484970092773,
        -9.680633544921875
      ],
      "min": [
        -2.191607713699341,
        1.9546408653259277,
        -11.132396697998047
      ],
      "type": "VEC3"
    },
    {
      "bufferView": 2,
      "byteOffset": 79128,
      "componentType": 5126,
      "count": 628,
      "max": [
        0.9986987709999084,
        0.999174952507019,
        0.9992005825042725
      ],
      "min": [
        -0.9986987709999084,
        -0.999174952507019,
        -0.9992005825042725
      ],
      "type": "VEC3"
    },
    {
      "bufferView": 1,
      "byteOffset": 23864,
      "componentType": 5126,
      "count": 628,
      "max": [
        1.0819356441497803,
        1.0615347623825073
      ],
      "min": [
        0.005336940288543701,
        -0.01861703395843506
      ],
      "type": "VEC2"
    },
    {
      "bufferView": 0,
      "byteOffset": 63084,
      "componentType": 5125,
      "count": 3456,
      "type": "SCALAR"
    }
  ],
  "asset": {
    "extras": {
      "author": "JuanG3D (https://sketchfab.com/juang3d)",
      "license": "CC-BY-4.0 (http://creativecommons.org/licenses/by/4.0/)",
      "source": "https://sketchfab.com/3d-models/markiplier-7a1f03667ff94f8f87ef0969e5e7c25d",
      "title": "Markiplier"
    },
    "generator": "Sketchfab-12.65.0",
    "version": "2.0"
  },
  "bufferViews": [
    {
      "buffer": 0,
      "byteLength": 76908,
      "name": "floatBufferViews",
      "target": 34963
    },
    {
      "buffer": 0,
      "byteLength": 28888,
      "byteOffset": 76908,
      "byteStride": 8,
      "name": "floatBufferViews",
      "target": 34962
    },
    {
      "buffer": 0,
      "byteLength": 86664,
      "byteOffset": 105796,
      "byteStride": 12,
      "name": "floatBufferViews",
      "target": 34962
    },
    {
      "buffer": 0,
      "byteLength": 41680,
      "byteOffset": 192460,
      "byteStride": 16,
      "name": "floatBufferViews",
      "target": 34962
    }
  ],
  "buffers": [
    {
      "byteLength": 234140,
      "uri": "scene.bin"
    }
  ],
  "images": [
    {
      "uri": "textures/Pelo_baseColor.png"
    },
    {
      "uri": "textures/Pelo_normal.png"
    },
    {
      "uri": "textures/Markiplier_baseColor.png"
    },
    {
      "uri": "textures/Markiplier_metallicRoughness.png"
    },
    {
      "uri": "textures/Markiplier_normal.png"
    },
    {
      "uri": "textures/Ojos_baseColor.jpeg"
    }
  ],
  "materials": [
    {
      "doubleSided": true,
      "name": "Gafas",
      "pbrMetallicRoughness": {
        "baseColorFactor": [
          0.00637029,
          0.00637029,
          0.00637029,
          1.0
        ],
        "metallicFactor": 0.0,
        "roughnessFactor": 0.5167999677
      }
    },
    {
      "doubleSided": true,
      "name": "Pelo",
      "normalTexture": {
        "index": 1
      },
      "pbrMetallicRoughness": {
        "baseColorTexture": {
          "index": 0
        },
        "metallicFactor": 0.0
      }
    },
    {
      "alphaMode": "BLEND",
      "doubleSided": true,
      "name": "cristal",
      "pbrMetallicRoughness": {
        "baseColorFactor": [
          0.8,
          0.8,
          0.8,
          0.4979577586
        ],
        "roughnessFactor": 0.0
      }
    },
    {
      "doubleSided": true,
      "name": "Markiplier",
      "normalTexture": {
        "index": 4
      },
      "occlusionTexture": {
        "index": 3
      },
      "pbrMetallicRoughness": {
        "baseColorTexture": {
          "index": 2
        },
        "metallicFactor": 0.0,
        "metallicRoughnessTexture": {
          "index": 3
        },
        "roughnessFactor": 0.7554679491
      }
    },
    {
      "doubleSided": true,
      "name": "Ojos",
      "pbrMetallicRoughness": {
        "baseColorTexture": {
          "index": 5
        },
        "metallicFactor": 0.0,
        "roughnessFactor": 0.2341668318
      }
    }
  ],
  "meshes": [
    {
      "name": "Object_0",
      "primitives": [
        {
          "attributes": {
            "NORMAL": 1,
            "POSITION": 0,
            "TEXCOORD_0": 2
          },
          "indices": 3,
          "material": 0,
          "mode": 4
        }
      ]
    },
    {
      "name": "Object_1",
      "primitives": [
        {
          "attributes": {
            "NORMAL": 5,
            "POSITION": 4,
            "TANGENT": 6,
            "TEXCOORD_0": 7
          },
          "indices": 8,
          "material": 1,
          "mode": 4
        }
      ]
    },
    {
      "name": "Object_2",
      "primitives": [
        {
          "attributes": {
            "NORMAL": 10,
            "POSITION": 9,
            "TEXCOORD_0": 11
          },
          "indices": 12,
          "material": 2,
          "mode": 4
        }
      ]
    },
    {
      "name": "Object_3",
      "primitives": [
        {
          "attributes": {
            "NORMAL": 14,
            "POSITION": 13,
            "TANGENT": 15,
            "TEXCOORD_0": 16
          },
          "indices": 17,
          "material": 3,
          "mode": 4
        }
      ]
    },
    {
      "name": "Object_4",
      "primitives": [
        {
          "attributes": {
            "NORMAL": 19,
            "POSITION": 18,
            "TEXCOORD_0": 20
          },
          "indices": 21,
          "material": 4,
          "mode": 4
        }
      ]
    }
  ],
  "nodes": [
    {
      "children": [
        1
      ],
      "matrix": [
        1.0,
        0.0,
        0.0,
        0.0,
        0.0,
        2.220446049250313e-16,
        -1.0,
        0.0,
        0.0,
        1.0,
        2.220446049250313e-16,
        0.0,
        0.0,
        0.0,
        0.0,
        1.0
      ],
      "name": "Sketchfab_model"
    },
    {
      "children": [
        2
      ],
      "name": "root"
    },
    {
      "children": [
        3,
        5,
        7,
        9,
        11
      ],
      "matrix": [
        1.0,
        0.0,
        0.0,
        0.0,
        0.0,
        2.220446049250313e-16,
        1.0,
        0.0,
        0.0,
        -1.0,
        2.220446049250313e-16,
        0.0,
        0.0,
        0.0,
        0.0,
        1.0
      ],
      "name": "GLTF_SceneRootNode"
    },
    {
      "children": [
        4
      ],
      "name": "Cube_0"
    },
    {
      "mesh": 0,
      "name": "Object_4"
    },
    {
      "children": [
        6
      ],
      "matrix": [
        0.034826796501874924,
        0.0,
        0.0,
        0.0,
        0.0,
        0.034826796501874924,
        0.0,
        0.0,
        0.0,
        0.0,
        0.034826796501874924,
        0.0,
        0.0,
        0.0,
        0.0,
        1.0
      ],
      "name": "Cube.001_1"
    },
    {
      "mesh": 1,
      "name": "Object_6"
    },
    {
      "children": [
        8
      ],
      "matrix": [
        0.030102452263236046,
        0.0,
        0.0,
        0.0,
        0.0,
        0.0,
        0.030102452263236046,
        0.0,
        0.0,
        -0.030102452263236046,
        0.0,
        0.0,
        0.05626628175377846,
        0.36042943596839905,
        0.1531294584274292,
        1.0
      ],
      "name": "Plane_2"
    },
    {
      "mesh": 2,
      "name": "Object_8"
    },
    {
      "children": [
        10
      ],
      "matrix": [
        0.02905377931892872,
        0.0,
        0.0,
        0.0,
        0.0,
        0.0,
        0.02905377931892872,
        0.0,
        0.0,
        -0.02905377931892872,
        0.0,
        0.0,
        0.0,
        0.0,
        0.0,
        1.0
      ],
      "name": "Plane.003_3"
    },
    {
      "mesh": 3,
      "name": "Object_10"
    },
    {
      "children": [
        12
      ],
      "matrix": [
        0.03615500032901764,
        0.0,
        0.0,
        0.0,
        0.0,
        0.0,
        0.03615500032901764,
        0.0,
        0.0,
        -0.03615500032901764,
        0.0,
        0.0,
        0.0,
        0.0,
        0.008060112595558167,
        1.0
      ],
      "name": "Sphere_4"
    },
    {
      "mesh": 4,
      "name": "Object_12"
    }
  ],
  "samplers": [
    {
      "magFilter": 9729,
      "minFilter": 9987,
      "wrapS": 10497,
      "wrapT": 10497
    }
  ],
  "scene": 0,
  "scenes": [
    {
      "name": "Sketchfab_Scene",
      "nodes": [
        0
      ]
    }
  ],
  "textures": [
    {
      "sampler": 0,
      "source": 0
    },
    {
      "sampler": 0,
      "source": 1
    },
    {
      "sampler": 0,
      "source": 2
    },
    {
      "sampler": 0,
      "source": 3
    },
    {
      "sampler": 0,
      "source": 4
    },
    {
      "sampler": 0,
      "source": 5
    }
  ]
}
